<svg xmlns="http://www.w3.org/2000/svg" width="1254" height="836" viewBox="0 0 1254 836">
<path fill="rgba(163,82,253,1)" 
d="M587.89 461.63c-14.25-5.04-23.16-14.35-27.3-28.56-4.43-15.17 1.11-33.95 12.86-43.58 15.89-13.02 43.43-13.23 60.34-.46 2.57 1.94 6.39 5.98 8.48 
8.98 15.96 22.84 5.61 54.17-20.99 63.56-9.53 3.36-23.96 3.38-33.39.06m-83.89 2.4c-14.14-2.61-26.15-11.5-32.24-23.86-3.13-6.37-3.26-7.1-3.26-18.65 0-10.97.24-12.52 2.7-17.77 3.77-8.05 11.7-16.11 19.73-20.03 6.37-3.12 6.96-3.22 19.57-3.22 11.96 0 13.45.21 18.62 2.64 14.62 6.85 23.88 21.52 23.88 37.83V428h-64.13l.64 2.25c4.45 15.48 27.65 21.22 38.75 9.59l3.76-3.94 9.49 3.26c5.22 1.79 9.49 3.54 9.49 3.88 0 2.22-7.15 10.71-11.41 13.52-9.57 6.35-24.57 9.5-35.59 7.47m-261 43.79c-2.33-15.4-8.77-32.39-16.63-43.92-9.88-14.49-25.87-28.88-41.37-37.22-8.45-4.56-25.22-10.67-29.34-10.7-1.19 0-2.8-.41-3.57-.91-1.04-.65-.23-1.21 3-2.08 21.63-5.81 32.21-9.84 43.66-16.61 8.14-4.81 17.9-12.25 22.69-17.29 1.61-1.7 3.3-3.09 3.75-3.09.44 0 .81 1.75.81 3.89 0 12.2 5.94 30.75 13.49 42.1 5.64 8.48 20.78 23.1 27.4 26.45 2.81 1.43 5.11 2.87 5.11 3.21 0 .33-1.49 2.69-3.31 5.23-10.59 14.76-18.44 33.22-21.76 51.12-.66 3.58-1.53 6.87-1.93 7.32-.41.45-1.3-2.93-2-7.5m18.2-84.44c-2.22-20.9-9.8-38.47-22.43-51.97-5.48-5.86-16.74-14.41-18.97-14.41-1.54 0-.76-1.59 3.69-7.52 9.23-12.29 15.02-26.21 18.91-45.48 1.28-6.33 2.56-10.83 2.86-10 .29.83 1.24 5.33 2.11 10 5.84 31.61 24.56 58.8 50.86 73.84 8.48 4.86 24.39 10.73 34.48 12.74 5.07 1.01 9.05 1.99 8.86 2.19-.2.19-3.44.78-7.21 1.31-24.11 3.36-47.67 15.62-63.76 33.17-3.9 4.26-7.34 7.75-7.63 7.75-.3 0-1.09-5.23-1.77-11.62M379 380.92l7.71.29 7.7.29 3.09 10.21 3.5-3.46c6.72-6.64 10.07-7.75 23.5-7.75 11.06 0 12.39.21 17.04 2.66 6.73 3.55 12.67 10.2 15.56 17.42 2.27 5.65 2.39 7.18 2.7 33.7l.32 27.79-21.62-.57-.5-25.5c-.56-28.49-.9-29.98-8.05-34.83-2.98-2.02-4.42-2.29-10.54-1.99-5.84.28-7.72.82-10.61 3.03-6.74 5.13-7.24 7.37-7.8 34.79l-.5 24.5-10.75.28-10.75.29zm304.9 83.07c-11.14-1.75-19.73-6.83-26.03-15.39-4.9-6.66-4.12-7.55 9.78-11.19 5.38-1.4 5.93-1.39 6.85.14 4.41 7.35 8.57 9.45 18.75 9.45 6.11 0 8.07-.41 10.85-2.29 3.84-2.59 4.65-4.93 2.86-8.29-1.52-2.84-6.17-4.77-16.54-6.88-25.14-5.1-34.42-11.98-34.42-25.55 0-9.4 6.75-17.88 17.41-21.87 4.42-1.66 7.92-2.12 15.95-2.12 11.86 0 18.07 1.52 25.05 6.15 4.94 3.27 11.52 11.16 11.57 13.87.01 1.05-2.75 2.37-8.97 4.26l-9 2.74-3.61-4c-4.28-4.74-9.34-6.41-17.6-5.81-6.4.46-9.8 2.69-9.8 6.42 0 3.18 5.75 5.99 16.25 7.95 16.39 3.07 24.24 6.15 29.45 11.58 9.15 9.54 8.32 23.37-1.94 32.4-8.04 7.08-23.31 10.57-36.86 8.43m-71.65-19.42c10.14-3.61 16.43-13.17 15.49-23.51-.97-10.72-7.11-18.5-17.06-21.63-6.88-2.17-12.97-1.34-18.91 2.6-10.1 6.69-13.35 20.83-7.31 31.79 1.62 2.93 4.18 6.21 5.7 7.29 6.49 4.62 15.07 5.97 22.09 3.46m-82.69-36.46c-2.2-4.25-8.02-8.89-12.8-10.19-5.09-1.38-14.11-.05-18.33 2.72-2.5 1.63-8.43 8.85-8.43 10.26 0 .33 9.23.47 20.5.31l20.51-.29Z"/><path fill="rgba(234,234,234,1)" d="M895 464.05c-14.53-2.71-25.43-11.18-31.77-24.71-2.5-5.35-2.73-6.86-2.73-17.84 0-10.94.24-12.51 2.7-17.75 3.53-7.54 11.86-16.25 18.98-19.84 7.11-3.59 17.86-5.33 27.43-4.43 13.97 1.31 27.71 10.41 32.93 21.83 2.97 6.48 5.01 17.97 4.07 22.94l-.7 3.75h-64.04l.68 2.25c4.78 15.79 26.23 21.21 37.87 9.56l3.97-3.96 5.55 1.73c3.06.96 7.5 2.56 9.87 3.57l4.3 1.83-3.02 4.39c-5.1 7.41-11.99 12.18-21.97 15.21-5.92 1.79-18.33 2.55-24.12 1.47m29-53.6c0-1.65-3.32-6.54-5.94-8.74-4.3-3.62-9.32-4.99-16.59-4.53-4.76.31-7.23 1.04-9.94 2.97-3.5 2.49-8.53 8.41-8.53 10.04 0 .45 9.22.81 20.5.81s20.5-.25 20.5-.55m-177.67 12.21c-12.54-25.1-19.43-39.95-19.03-41 .54-1.41 2.33-1.66 11.92-1.64 6.2 0 11.81.35 12.46.76.66.42 6.56 12.13 13.13 26.04 6.57 13.9 12.17 25.49 12.44 25.76s4.03-7.29 8.35-16.8c4.33-9.5 9.9-21.33 12.39-26.28l4.51-9 11.42-.28c6.27-.16 11.8.1 12.28.58 1.17 1.17-.47 4.85-20.41 45.95L788.69 462H766zm85.37 38.7c-.39-.38-.7-18.3-.7-39.83 0-29.1.31-39.44 1.2-40.33 1.36-1.36 19.5-1.67 21.56-.37.99.63 1.21 9.45 1 40.74l-.26 39.93-11.05.28c-6.08.16-11.37-.03-11.75-.42m137.5-.56c-.66-.66-1.2-1.66-1.2-2.23 0-.56-1.1-3.96-2.44-7.55s-7.44-20.66-13.55-37.93c-8.56-24.22-10.81-31.6-9.81-32.24 2.21-1.39 21.41-1.03 22.62.43.59.71 4.06 10.27 7.72 21.25 3.66 10.99 7.01 20.6 7.44 21.38.49.89 3.39-6.65 7.94-20.66 3.94-12.14 7.7-22.27 8.37-22.51 2.31-.85 16.22-.77 17.54.1.73.48 4.6 10.62 8.59 22.53 3.99 11.9 7.51 21.89 7.82 22.2.3.3 3.58-8.59 7.28-19.76 9.41-28.41 7.4-25.81 20.04-25.81 8.36 0 10.62.3 11.07 1.48.53 1.37-1.02 6.12-8.16 25.02-1.46 3.85-3.11 8.35-3.68 10s-3.92 10.88-7.46 20.5-7 19.08-7.68 21l-1.23 3.5h-19.92l-7.93-23.77c-4.36-13.07-8.25-23.42-8.65-23-.39.42-3.92 10.85-7.85 23.18-3.93 12.32-7.38 22.78-7.67 23.25-.83 1.34-17.82 1.02-19.2-.36m-136.63-89.37c-1.09-1.1-1.57-3.48-1.57-7.85 0-8.94.94-9.58 14.13-9.58 6.81 0 10.89.42 11.67 1.2.7.7 1.2 4.03 1.2 7.93 0 9.42-.61 9.87-13.5 9.87-8.08 0-10.7-.35-11.93-1.57"/></svg>