<svg xmlns="http://www.w3.org/2000/svg" fill="none" viewBox="342 352 581 95"><path fill="var(--brand-mark, #8b5cf6)" d="M524.5 438.12c-8.88-2.35-17.53-9.13-22.06-17.32-2.68-4.82-2.94-6.16-2.94-14.8.01-7.87.38-10.21 2.2-13.62 6.79-12.7 19.17-19.66 34.9-19.63 22.27.05 37.75 13.65 37.86 33.25.07 13.04-6.57 23.27-19.12 29.47-5.2 2.57-7.05 2.91-16.84 3.16-6.05.16-12.35-.07-14-.51m-76.51-.1c-9.1-2.3-18.51-10.26-22.95-19.43-1.82-3.76-2.39-6.67-2.46-12.51-.07-6.7.32-8.42 3.25-14.39 6.01-12.21 17.28-18.69 32.51-18.69 21.54 0 35.66 12.88 35.66 32.54V412h-26.5c-14.58 0-26.5.28-26.5.63 0 2.34 4.78 7.57 8.61 9.43 8.56 4.14 19.51 2.72 26.2-3.41l2.31-2.11 6.64 3.48c3.65 1.91 6.78 3.96 6.96 4.54.57 1.87-7.04 8.63-12.72 11.3-4.73 2.22-7.04 2.62-16.5 2.81-6.05.13-12.58-.17-14.51-.65m-96.32-.69c-.37-.36-.67-14.76-.67-32V374h17v3c0 3.35 1.08 3.82 3.11 1.36 2.43-2.92 9.74-5.34 16.7-5.52 12.73-.33 21.83 4.83 26.57 15.07 1.93 4.18 2.15 6.65 2.44 27.38l.32 22.79-8.82-.29-8.82-.29-.5-20.05c-.54-21.57-.98-23.43-6.42-26.99-3.55-2.33-14.15-2.16-17.48.28-5.44 3.99-6.1 6.98-6.1 28.01V438h-8.33c-4.59 0-8.64-.3-9-.67m247.77.78c-7.93-2.02-14.81-6.87-18.87-13.28l-1.7-2.67 4.32-2.51c8.85-5.14 9.53-5.27 11.89-2.28 3.56 4.54 9.58 7.05 16.96 7.09 7.34.04 11.96-2.1 11.96-5.53 0-2.73-4.2-4.38-16.55-6.5-13.55-2.34-21.62-6.16-24.93-11.81-3.08-5.25-3.19-9.61-.4-15.37 3.83-7.91 13.61-12.34 27.24-12.34 9.02 0 16.32 2.04 21.97 6.14 4.05 2.94 8.89 8.79 8.19 9.92-.23.37-3.6 1.95-7.5 3.52l-7.09 2.86-1.6-2.29c-5.07-7.24-24.16-8.2-25.15-1.26-.4 2.79 3.88 4.79 13.07 6.09 17.41 2.47 27.59 8.08 29.84 16.45 2.44 9.07-1.23 16.62-10.4 21.38-4.64 2.41-6.42 2.72-16.69 2.94-6.33.13-12.88-.12-14.56-.55m-50.6-17.39c10.65-7.04 10.65-21.95 0-29.33-3.62-2.51-4.99-2.84-11.79-2.86-6.74-.03-8.21.31-11.85 2.72-5.11 3.38-7.22 6.48-7.91 11.65-1.74 12.92 6.84 21.51 20.82 20.86 5.2-.24 7.49-.89 10.73-3.04M475 397.13c0-1.59-4.15-6.15-6.84-7.53-4.27-2.19-10.56-2.84-15.24-1.58-4.16 1.12-10.92 6.61-10.92 8.88 0 .76 5.17 1.1 16.5 1.1 9.08 0 16.5-.39 16.5-.87"/><path fill="currentColor" d="M765.31 437.13c-10.13-3.78-15.69-8.59-19.61-16.95-7.74-16.55-.44-35.77 16.8-44.23 4.39-2.15 6.35-2.45 16-2.45 10.02 0 11.51.25 16.69 2.79 11.58 5.69 19 17.34 19.22 30.21l.09 5-26.75.27c-14.71.14-26.75.59-26.75 1 .01.4.89 2.17 1.96 3.94 4.86 7.96 21.33 10.47 28.9 4.4 6.83-5.48 6.6-5.42 10.43-2.82 1.93 1.31 4.9 2.96 6.61 3.67 1.7.7 3.1 1.85 3.1 2.54 0 1.96-7.35 8.13-13.21 11.11-4.63 2.35-6.73 2.74-16.79 3.07-9.56.32-12.37.06-16.69-1.55M795 398.08c0-1.62-5.13-7.1-8.07-8.62-6.08-3.14-16.36-1.37-21.62 3.72-5.74 5.57-5.16 5.82 13.19 5.82 9.42 0 16.5-.4 16.5-.92m-128.71 33.16c-5.06-10.61-11.29-24.31-11.29-24.81 0-.25-3.38-7.46-7.5-16.03-4.12-8.56-7.5-15.77-7.5-16.02 0-.24 5.02-.32 11.15-.16l11.15.28 7.99 18.81c4.39 10.35 8.34 18.45 8.77 18 .73-.75 6.9-14.84 13.38-30.56l2.79-6.75h20.99l-.64 2.54c-.35 1.4-2.26 6.01-4.25 10.25s-7.09 15.36-11.34 24.71c-4.26 9.35-8.78 19.14-10.06 21.75L687.6 438l-9.05-.01h-9.05zm52.71-24.7V375h17.69l.52 15.75c.28 8.66.46 22.73.4 31.25l-.11 15.5-9.25.29-9.25.29zm112.05 26.83c-1.13-2.54-2.05-5.01-2.05-5.49 0-.85-4.02-11.59-6.5-17.38-2.86-6.64-7.7-19.09-7.99-20.55-.18-.86-1.49-4.33-2.91-7.72-1.43-3.4-2.6-6.65-2.6-7.23 0-.71 3.48-.97 10.21-.78l10.21.28 5.54 17.23c3.05 9.48 5.79 17.24 6.1 17.25s3.22-7.87 6.47-17.52l5.89-17.53 8.54.28 8.54.29 5.96 17.75c3.28 9.76 6.2 17.74 6.5 17.74.3-.01 1.59-3.05 2.87-6.75 1.28-3.71 4.04-11.69 6.13-17.74l3.8-11 10.24-.29c8.03-.22 10.13 0 9.75 1-.72 1.86-19.34 49.17-22.15 56.29l-2.37 6h-16.66l-2.94-9c-1.62-4.95-3.71-10.8-4.65-13s-2.27-5.8-2.96-8c-.7-2.2-1.56-4.33-1.92-4.73s-3.32 7.37-6.58 17.25L849.59 438h-16.5zm-110.49-61.95c-2.63-2.63-3.37-4.79-2.47-7.18 1.08-2.86 4.66-4.24 10.98-4.24 5.65 0 8.93 2.39 8.93 6.5 0 4.38-3.23 6.5-9.93 6.5-4.07 0-6.42-.5-7.51-1.58"/></svg>