<svg xmlns="http://www.w3.org/2000/svg" width="1254" height="836" viewBox="0 0 1254 836"><path fill="rgba(0,0,0,1)" d="M965.79 453.29c-1.43-3.74-4.29-11.29-6.34-16.79-2.06-5.5-4.75-12.7-5.99-16s-5-13.32-8.36-22.26c-3.35-8.94-6.1-16.71-6.1-17.28 0-.66 4.18-.92 11.66-.74l11.67.28 3.91 11.5c2.16 6.33 5.64 16.9 7.75 23.5s4.09 11.33 4.41 10.5 4.11-11.4 8.44-23.5l7.86-22 8.55-.29 8.56-.29 1.74 4.79c.96 2.64 2.76 7.49 3.99 10.79 6.07 16.23 7.46 20.09 7.46 20.69 0 .35.95 2.82 2.1 5.48l2.1 4.83 6.94-20.5c3.81-11.27 7.42-21.74 8.02-23.25l1.08-2.75h11.38c6.97 0 11.38.39 11.38 1.01 0 .55-1.54 4.94-3.43 9.75s-7.54 19.76-12.55 33.24-10.12 26.98-11.36 30l-2.25 5.5-8.96.28-8.95.28-4.19-11.28c-2.3-6.21-6.32-17.12-8.93-24.24s-4.89-12.52-5.08-11.99c-.18.52-4.07 11.3-8.64 23.95l-8.3 23-8.48.29-8.48.28ZM893 460.62c-13.05-2.37-24.45-10.95-29.84-22.44-2.44-5.2-2.66-6.73-2.66-18.18 0-11.81.16-12.83 2.94-18.49 6.03-12.28 17-19.89 31.22-21.66 14.59-1.81 27.71 1.84 36.84 10.25 7.82 7.22 11.82 16.27 12.87 29.15l.55 6.75h-31.96c-24.55 0-31.24-.12-31.96 1.89-.31.86.47 2.1 1.41 3.91 3.83 7.32 11.24 11.21 21.31 11.18 7.69-.03 13.54-2.19 17.52-6.48l2.53-2.73 6.86 2.67c3.78 1.47 8.1 3.15 9.61 3.73 2.73 1.06 2.73 1.07 1 4.06-2.58 4.44-9.76 10.4-15.93 13.23-3.06 1.4-9.04 2.94-13.61 3.52-9.59 1.2-10.22 1.19-18.7-.36m-130.74-6.84c-1.76-3.45-6.27-12.13-10.02-19.28s-10.6-20.2-15.21-29-9.38-17.89-10.6-20.19c-1.22-2.31-1.96-4.45-1.65-4.75.3-.31 6.13-.56 12.94-.56h12.39l13.09 26.75c7.25 14.81 13.32 26.08 13.6 25.25s6.03-12.86 12.79-26.75L801.87 380h12.07c6.63 0 12.05.34 12.04.75-.02.41-8.92 18.3-19.79 39.75l-19.77 39-20.96.56ZM832 380h21v80h-21zm1.41-8.33c-2.2-1.89-2.73-3.22-2.81-7.08-.08-4.04.32-5.13 2.71-7.18 2.44-2.1 3.8-2.41 10.57-2.41 6.98 0 8.01.25 10.1 2.48 1.7 1.8 2.35 3.73 2.42 7.08.08 3.88-.35 5-2.71 7.03-2.41 2.08-3.82 2.41-10.19 2.41-6.29 0-7.79-.35-10.09-2.33m88.59 38.2c0-2.33-4.22-7.84-7.61-9.94-4.34-2.68-14.54-3.69-19.77-1.97-4.5 1.48-9.2 5.32-11.16 9.11-.8 1.56-1.46 3.08-1.46 3.38s9 .55 20 .55c14.22 0 20-.33 20-1.13"/><path fill="rgba(53,22,221,1)" d="M341.96 393.54c2.96-.63 3.03-.92 2.43-1.44-.34-.31-3.19-1.15-6.48-2.01 2.63.53 5.29.91 6.67.91 5.73 0 4.13 1.17-2.62 2.54m-35.23-13.05c-1.11-.47-2.12-.9-2.97-1.29-12.06-5.49-22.57-13.48-31.28-23.6 9.24 10.51 20.67 18.81 34.25 24.89m-18.42 31.58c2.84-2.1 5.7-3.93 8.44-5.37 8.41-4.42 20.53-8.5 31.53-10.68-16.11 3.37-29.35 8.67-39.97 16.05m42.68-23.65c-1.54-.33-2.8-.56-3.49-.63-.91-.08-4.07-1.08-7.91-2.42 3.15 1.01 6.21 1.9 7.24 2.1.71.13 2.3.5 4.16.95"/><path fill="rgba(151,67,254,1)" d="M243 516.46c0-2.76-2.18-12.8-4.61-21.26-.84-2.92-1.68-6.07-1.87-7-.36-1.78-2.42-6.68-7.02-16.66-3.58-7.75-6.52-11.95-16.76-23.9-3.89-4.53-17.84-16.64-19.18-16.64-.33 0-2.28-1.1-4.33-2.45-5.56-3.66-22.77-10.16-30.73-11.62-8.86-1.61-9.87-2.51-4.38-3.88 19.17-4.79 30.22-8.66 39.07-13.66 3.3-1.86 6.16-3.39 6.36-3.39s2.07-1.16 4.16-2.57c6.63-4.5 15.54-13.65 19.02-19.55 2.42-4.09 3.27-3.59 3.27 1.93 0 6.94 3.5 24.78 6.12 31.19 3.11 7.63 10.02 18.21 16.19 24.78 5.49 5.86 19.31 16.65 22.68 17.72 1.11.35 2.01 1.03 2.01 1.51 0 .49-2.27 3.88-5.04 7.55C257.88 471.87 250.6 490 246 513.25c-1.16 5.85-3 7.82-3 3.21m255.47-55.87c-13.68-3.12-24.19-11.07-29.66-22.44-2.7-5.61-3.27-8.07-3.62-15.79-.62-13.59 2.55-22 11.64-30.88 6.76-6.6 17.6-11.3 28.1-12.18 7.89-.66 20.92 2.25 27.61 6.17 10.46 6.13 16.34 17.09 17.19 32.03l.52 9-31.27-.3c-17.2-.17-31.65.07-32.11.53-1.29 1.29 3.02 9.09 6.51 11.74 9.68 7.37 23.28 7.13 32.9-.58l3.77-3.03 5.84 2.02c3.21 1.11 7.46 2.8 9.44 3.74l3.6 1.72-3 4.08c-3.74 5.09-12.46 11.05-19.26 13.15-7.16 2.21-20.82 2.71-28.2 1.02m28.98-50.84c-1.47-4.85-4.89-9.05-8.85-10.85-5.5-2.49-15.71-2.49-21.22.01-5.19 2.36-11.55 10.59-9.64 12.49.32.33 9.55.6 20.49.6h19.9zM589 460.56c-18.57-4.15-31.15-17.77-32.95-35.68-.85-8.43-.04-15.06 2.42-19.82.84-1.63 1.53-3.43 1.53-4 0-2.87 10.49-13.13 16.1-15.76 16.88-7.91 34.12-8.05 50.45-.42 8.65 4.04 12.89 8.21 17.17 16.88 3.64 7.36 3.74 7.85 3.73 18.65-.01 10.31-.22 11.55-3.12 17.71-1.71 3.65-4.72 8.42-6.7 10.6-9.63 10.66-30.84 15.82-48.63 11.84m25.8-19.76c3.88-2 5.28-3.54 8.04-8.86 2.94-5.65 3.3-7.18 2.97-12.48-.52-8.28-4.64-14.98-11.33-18.42-6.64-3.42-18.95-3.61-24.98-.38-7.63 4.09-11.5 10.73-11.49 19.71 0 7.66 1.58 11.97 5.96 16.27 7.68 7.54 20.82 9.31 30.83 4.16m63.57 19.77c-6.73-1.53-11.12-3.54-16.19-7.39-3.57-2.72-8.47-9.3-9.6-12.9-.58-1.85-.24-2.31 2.11-2.81 1.55-.34 5.21-1.48 8.15-2.54l5.34-1.93 4.32 4.45c5.66 5.82 12.64 8.02 22.2 6.99 7.39-.79 11.3-3.46 11.3-7.7 0-4.96-2.43-6.23-19.5-10.25-11.93-2.81-19.59-5.65-23.46-8.68-7-5.49-10.22-15.67-7.29-23.08 5.73-14.54 35.52-19.79 55.22-9.74 6.48 3.3 15.56 13.95 13.16 15.43-.47.29-4.46 1.86-8.86 3.48l-8.01 2.95-3.7-3.79c-4.17-4.27-8.98-6.06-16.28-6.06-12.57 0-16.29 5.92-6.39 10.17 2.54 1.09 7.08 2.43 10.11 2.98 8.15 1.47 20.95 5.56 25.46 8.12 2.28 1.29 5.22 4.27 6.9 7 3.96 6.4 4.19 16.19.52 22.85-2.62 4.77-9.7 10.14-15.7 11.91-6.11 1.8-22.97 2.11-29.81.54m-299.7-1.24c-.37-.36-.67-18.14-.67-39.5V381h18v12.42l4.25-4.11c11.13-10.75 26.85-12.85 41.58-5.56 7.09 3.51 12.32 10.18 14.58 18.61 1.37 5.1 1.6 10.46 1.37 31.64l-.28 25.5-8.5.3c-4.67.16-9.54.03-10.8-.29l-2.31-.57.18-23.22c.19-25.3-.34-28.46-5.62-33.36-3.3-3.05-6.03-3.67-14.24-3.2-8.3.47-12.51 3.11-15.58 9.75-1.94 4.18-2.16 6.66-2.46 27.84l-.33 23.25h-9.25c-5.09 0-9.56-.3-9.92-.67M262.56 429.7c-6.27-33.76-22.35-60.41-42.32-70.16l-6.03-2.95 5.39-5.96c6.32-6.99 11.89-17.41 16.35-30.58 3.36-9.93 7.01-25.64 7.03-30.3.04-5.41 1.65-2.61 2.89 5 6.55 40.34 27.21 70.49 57.89 84.45 6.35 2.9 21.56 8.4 23.74 8.59 2.93.27 16.13 3.63 16.89 4.31 1 .88.12 1.11-13.39 3.42-11.69 2-25.14 6.39-34.25 11.18-9.81 5.16-21.27 15.44-27.36 24.55l-5.11 7.65z"/></svg>