<svg xmlns="http://www.w3.org/2000/svg" viewBox="235 325 530 300">
  <path fill="#8b5cf6" d="M632.96 593.83c-3.39-14.19-11.24-35.26-19.97-53.55-23.07-48.37-59.32-78.53-122.49-101.86-7.15-2.64-13.35-5.09-13.78-5.45-.43-.35 2.94-1.66 7.5-2.9 24.23-6.61 52.9-19.36 68.29-30.38 9.18-6.56 26.38-23.54 31.13-30.72 1.44-2.19 2.91-3.97 3.25-3.97s.76 2.59.93 5.75c.75 14.1 7.6 39.19 14.33 52.53 14.3 28.37 37.03 50.72 67.27 66.15 4.88 2.49 9.08 4.74 9.35 5 .26.26-1.25 2.82-3.36 5.69-16.8 22.89-30 54.15-37.95 89.88-.92 4.12-2.02 7.87-2.45 8.33-.42.46-1.34-1.57-2.05-4.5m33.67-119.97c-.21-.75-1.17-4.96-2.13-9.36-4.47-20.59-16.78-49.55-28.48-67.03-14.57-21.77-30.38-36.42-53-49.1-5.71-3.2-9.92-6.19-9.67-6.84.25-.64 3.24-5.41 6.65-10.6 13.14-19.97 26.63-51 35.42-81.43 3.63-12.58 9.02-34.99 10.17-42.27.95-6.06 2.05-6.05 2.83.04 1.36 10.62 6.66 31.49 13.27 52.19 18.67 58.53 51.9 98.67 101.81 123 13.42 6.55 31.96 13.79 43.75 17.11 3.71 1.05 6.74 2.14 6.73 2.42s-3.05 1.48-6.75 2.66c-45.44 14.56-83.89 35.99-111.26 62.04-5.56 5.29-9.1 8.01-9.34 7.17"/>
</svg>
